<svg width="890" height="886" viewBox="0 0 890 886" fill="none" xmlns="http://www.w3.org/2000/svg">
<g id="Group">
<path id="Vector" d="M412.667 0.799964C365.6 5.19996 334.8 11.6 295.067 25.3333C173.867 67.2 75.4669 162.933 29.4669 283.6C11.3336 331.333 2.53357 376.8 1.0669 429.333C-0.266433 482.8 7.33357 535.867 23.4669 584.133C45.2002 649.2 84.2669 710.933 135.467 760.667C203.734 826.933 289.334 868.667 384.667 882C408.667 885.467 470.934 886.267 495.334 883.467C569.334 875.067 631.2 852.267 693.6 810.4C715.334 795.867 733.067 781.067 756 758C832 682 874.8 593.6 887.467 486C890 465.467 889.6 414.933 886.8 392C882.534 356.4 873.867 320.267 861.2 286C847.2 247.867 819.067 198.533 792 164.667C777.867 146.933 742 110.933 725.067 97.6C659.867 46.1333 584.267 14.8 499.467 4.1333C478.534 1.46663 427.067 -0.533369 412.667 0.799964ZM499.334 44.6666C548.267 52.1333 581.867 62.2666 622.934 82C691.067 114.667 746.8 164.4 788 229.333C810.667 265.2 828 306.4 838.667 349.733C858.934 431.867 851.334 520.667 817.334 600C804.267 630.533 780.534 670.133 759.867 696C746.534 712.533 722.134 737.333 705.6 750.8C692 762 691.067 762.533 688.267 760.8C686.667 759.733 666.4 749.2 643.334 737.467C620.267 725.733 600.667 715.067 599.734 713.733C596 708.133 591.334 663.733 591.334 634V621.6L598.667 607.333C605.067 594.8 614.8 568.267 617.2 556.533C618.134 552.533 618.4 552.4 626.934 551.6C637.067 550.533 649.734 545.067 656.267 538.8C662 533.2 667.2 524.267 669.467 515.733C676.4 489.467 682.667 440.533 681.734 419.2C681.334 408.533 680.667 406.133 677.334 400.533C671.6 391.2 661.734 386.133 650.934 387.067C643.467 387.733 643.067 387.6 643.867 384.933C645.2 379.333 648.534 357.733 654 320.667C657.067 300.133 660.667 278.8 662.134 273.067C668.267 248.667 662.4 216.933 645.467 182C636.934 164.533 629.334 155.467 618 149.467C613.467 147.067 606.134 141.733 601.6 137.733C586.267 124 569.467 111.6 559.334 106.8L549.334 102L527.2 101.733C502.4 101.6 499.334 100.8 488 92C468.4 76.9333 453.867 75.4666 420.134 85.4666C404.667 90 399.467 90.1333 386.134 86.6666C374.934 83.6 362.8 83.2 355.067 85.6C347.334 87.8666 338.934 95.8666 334.934 105.067L331.334 112.933L319.067 113.733C297.867 115.067 289.467 120.267 281.867 136.8C279.067 142.933 275.334 148.8 273.6 150C271.867 151.067 266.934 152.667 262.534 153.467C258.267 154.267 253.2 155.733 251.2 156.667C245.867 159.467 238.267 168.667 236.8 174.267C234.934 180.8 234.934 192.533 236.8 199.333C238.134 204.133 238 204.8 235.2 206.667C228.534 211.067 222.267 218.8 220.134 224.8C216.4 235.733 217.867 246.933 225.067 262.667C227.867 268.8 229.067 275.733 232.667 307.333C234.934 327.867 238 353.6 239.467 364.533C240.8 375.333 242 385.067 242 385.867C242 386.933 239.467 387.333 233.734 386.933C226.534 386.533 224.267 386.933 218 390.267C211.6 393.6 210.134 395.2 206.267 402.8C202 411.067 201.867 412.133 201.867 425.733C202 448.667 205.334 474.4 212.134 505.333C218.667 534.667 227.734 545.333 250.4 550.667L259.734 552.8L262.8 564.933C267.2 581.6 273.067 596.533 282.934 615.733L291.334 632.133V645.067C291.334 677.867 286.934 713.067 282.267 717.467C281.067 718.667 261.2 729.067 238.267 740.667L196.667 761.6L184.934 751.867C142.267 716 102.267 664.4 79.3336 615.467C33.7336 517.867 28.1336 405.867 64.0002 306C71.0669 286.267 87.4669 252 98.8002 233.333C126.667 187.333 166.4 144.667 211.334 112.8C264.267 75.0666 332.534 49.8666 401.6 42.6666C419.6 40.8 482.8 42.1333 499.334 44.6666ZM437.334 205.467C440.267 206.133 451.067 207.067 461.334 207.333C471.6 207.6 482.8 208.4 486.267 209.2C496.534 211.6 552.8 233.2 560.267 237.6C573.467 245.6 577.867 254.667 581.2 280.4C583.467 297.333 586.4 304.267 596 316C609.867 333.067 611.867 342 611.734 386.667C611.467 449.067 602.4 519.067 589.867 555.867C578.8 588.533 539.734 639.867 517.867 650.533C501.6 658.533 474.534 660.8 448.4 656.4C435.734 654.267 434.267 654.4 420.534 656.667C395.867 660.8 370.134 658.133 353.6 649.867C335.2 640.533 298.134 591.2 287.2 561.2C280.534 543.067 274.534 514.533 270.8 483.333C266.667 449.067 263.6 366.8 265.867 347.067C267.467 332.267 270.4 325.067 279.467 314.267C288.4 303.733 290.8 298.133 293.334 282.267C296.534 262.533 297.334 261.2 308.534 257.867C322.267 253.867 332.4 245.867 338.4 234C342.667 225.467 344.4 224.8 365.734 223.867C387.6 222.933 391.467 221.867 403.067 213.067C406.934 210.267 412 206.933 414.4 206C419.467 203.733 429.867 203.467 437.334 205.467ZM240.267 415.067C244.8 419.2 245.734 423.867 248 453.333C249.867 477.333 251.6 494.933 254.8 521.067L255.734 528.133L251.867 526.533C240.667 521.733 235.334 511.733 231.467 489.067C228.134 469.467 224.134 426.267 225.067 420.267C226.667 410.933 233.2 408.533 240.267 415.067ZM656.8 413.467C659.6 416.267 659.734 417.2 658.8 431.333C657.867 448.8 653.334 483.6 650.667 495.733C646.4 514 639.2 524.267 629.334 526.133C626.667 526.533 624.267 526.667 623.867 526.267C623.467 525.867 625.2 509.467 627.867 489.733C630.534 470.133 633.334 448.933 634.134 442.667C636.134 426.933 637.467 422.133 641.6 417.333C647.334 410.4 652.534 409.2 656.8 413.467ZM569.734 680.933C571.467 703.733 574.534 716.667 581.334 731.733L586.267 742.533L583.067 749.6C575.2 766.4 555.467 785.867 533.334 798.533C521.2 805.6 498.534 813.6 480.267 817.6C462.134 821.467 423.867 821.867 404.667 818.267C381.867 814 355.2 803.733 339.334 792.933C323.334 782 308.934 766.133 301.2 750.8L297.734 743.6L301.734 735.467C309.334 719.867 312.934 704 314.8 676L315.6 663.333L333.734 681.333C368.8 716 378.267 719.333 442 719.2C482.4 719.2 496.267 717.333 511.467 710.267C521.467 705.467 537.467 692.267 553.334 675.6C560.667 668 567.067 661.6 567.467 661.467C567.867 661.467 568.8 670.133 569.734 680.933Z" fill="black"/>
<path id="Vector_2" d="M311.6 339.467C304.8 342 291.867 353.6 286.133 362.267C283.867 365.733 282 368.8 282 369.333C282 369.733 291.467 369.867 303.067 369.6C315.467 369.333 337.6 370.267 357.333 371.733C378.267 373.333 392.267 373.733 394.933 373.067C406.8 369.867 411.333 350.667 402 343.733C397.867 340.8 380.133 339.067 343.867 338C321.6 337.467 316.4 337.733 311.6 339.467Z" fill="black"/>
<path id="Vector_3" d="M499.333 339.333C487.2 340.267 476.267 341.067 474.933 341.2C473.6 341.333 471.067 342.8 469.333 344.667C466.667 347.2 466 349.2 466 354.667C466 367.6 472.4 373.733 485.867 373.467C490 373.467 506.533 372.4 522.667 371.2C541.867 369.733 558.8 369.333 571.733 369.733L591.467 370.533L589.067 366.4C584.133 357.733 570.8 345.067 562.667 341.067C555.067 337.6 553.733 337.333 538 337.467C528.8 337.6 511.467 338.533 499.333 339.333Z" fill="black"/>
<path id="Vector_4" d="M328 385.067C323.2 386.667 320.267 388.8 317.067 393.067C313.2 398.267 310.134 407.2 311.734 408.8C312 409.2 314.667 408.533 317.467 407.467C320.4 406.267 325.2 404.8 328.267 404.133L333.867 402.933L336.134 408.933C338.534 415.2 344.267 420.8 349.467 422.133C358.267 424.4 369.467 417.333 372.134 408C373.334 403.867 374 403.467 381.867 401.867C391.867 399.733 394 398.267 394 393.2C394 390.4 393.067 388.933 390.267 387.467C380.667 382.533 340 380.933 328 385.067Z" fill="black"/>
<path id="Vector_5" d="M494.267 384.133C490.4 384.8 485.2 386.133 482.667 387.2C478.8 388.8 478 389.867 478 393.2C478 398.133 482.8 401.067 492.8 402.267C497.467 402.8 499.333 403.6 499.333 405.067C499.333 409.333 506 418.4 510.8 420.667C520.667 425.333 530.533 421.2 535.733 410.267C539.067 403.067 540.4 402.667 552.133 406.533C556.4 408 560.133 408.933 560.533 408.533C560.8 408.267 560.4 405.6 559.467 402.667C557.333 395.333 548.133 386 541.333 384.133C535.067 382.4 504.533 382.4 494.267 384.133Z" fill="black"/>
<path id="Vector_6" d="M398.4 486C393.467 488.133 391.334 491.6 391.334 497.2C391.334 501.733 393.467 503.333 401.334 505.067L406.134 506L383.2 523.2C357.734 542.4 351.867 547.733 349.2 554.133C345.334 563.333 347.867 570.667 354.134 568.667C355.867 568.133 364.4 563.333 373.334 558C392.934 546.267 411.734 536.667 417.734 535.333C420.934 534.667 424.4 535.2 429.867 537.333L437.467 540.133L443.867 537.333C447.334 535.867 451.6 534.667 453.2 534.667C456.8 534.667 475.6 543.733 492 553.333C520.8 570.267 523.734 571.333 525.467 564.4C526.934 558.933 522.4 550 514.8 543.067C510.934 539.6 499.2 530.133 488.534 522.133C478 514.133 469.2 507.2 468.934 506.667C468.8 506.267 470.934 505.067 473.867 504.133C484.4 501.067 485.2 491.867 475.334 486.4C469.734 483.333 464.534 483.733 453.334 488C442.8 491.867 425.734 491.333 417.067 486.933C410.667 483.6 404.534 483.333 398.4 486Z" fill="black"/>
<path id="Vector_7" d="M403.734 560.667C387.2 564.933 380.667 568.533 380.667 573.333C380.667 574.667 381.734 576 383.067 576.267C384.267 576.667 396.534 576 410.267 574.8C431.467 573.067 438.8 573.067 457.6 574.4C470 575.333 481.467 576.4 483.334 576.8C485.6 577.333 487.867 576.667 490 574.933C494.4 571.333 492.4 569.067 480.934 564.8C464.267 558.533 456.8 557.333 435.867 557.333C419.467 557.467 413.867 558 403.734 560.667Z" fill="black"/>
<path id="Vector_8" d="M404.267 599.6C403.733 600 403.333 602.133 403.333 604.133C403.333 606.8 405.067 609.333 410.267 614C419.333 622.133 428.4 626.667 435.733 626.667C442.533 626.667 454.133 620.267 463.067 611.6C469.2 605.6 470.133 602.133 466.133 600C463.2 598.533 405.733 598.133 404.267 599.6Z" fill="black"/>
</g>
</svg>
